<svg width="34" height="28" viewBox="0 0 34 28" fill="none" xmlns="http://www.w3.org/2000/svg">
<path class="outer" d="M30.5822 0H3.41628C1.64113 0 0.199219 1.46185 0.199219 3.26154V19.0293C0.199219 20.8322 1.64113 22.2909 3.41628 22.2909H13.1391C13.164 23.5633 13.1858 26.6449 13.1983 27.4468C13.2045 27.8604 13.6374 28.1257 14.0017 27.9394C15.6243 27.1121 19.3303 23.3739 21.258 22.2909H30.5822C32.3605 22.2909 33.7993 20.829 33.7993 19.0293V3.26154C33.7993 1.45869 32.3574 0 30.5822 0Z" fill="#464646"/>
<path class="inner" fill-rule="evenodd" clip-rule="evenodd" d="M16.6889 18.6669C20.9845 18.6669 24.4667 15.1847 24.4667 10.8891C24.4667 6.59356 20.9845 3.11133 16.6889 3.11133C12.3934 3.11133 8.91113 6.59356 8.91113 10.8891C8.91113 15.1847 12.3934 18.6669 16.6889 18.6669ZM17.4576 14.2417C17.7103 14.4945 18.0422 14.6215 18.374 14.6215C18.7059 14.6215 19.0378 14.4945 19.2905 14.2417C19.7974 13.7349 19.7974 12.9156 19.2905 12.4087L17.7259 10.8441V8.14005C17.7259 7.42319 17.1452 6.84375 16.4296 6.84375C15.714 6.84375 15.1333 7.42319 15.1333 8.14005V11.3808C15.1333 11.7256 15.2694 12.0549 15.5131 12.2973L17.4576 14.2417Z" fill="#171717"/>
</svg>
