<svg width="16" height="16" viewBox="0 0 16 16" fill="none" xmlns="http://www.w3.org/2000/svg">
<g clip-path="url(#clip0_862_25935)">
<path d="M7.33398 10.6673H8.66732V12.0007H7.33398V10.6673ZM8.00065 1.33398C4.32065 1.33398 1.33398 4.32065 1.33398 8.00065C1.33398 11.6807 4.32065 14.6673 8.00065 14.6673C11.6807 14.6673 14.6673 11.6807 14.6673 8.00065C14.6673 4.32065 11.6807 1.33398 8.00065 1.33398ZM8.00065 13.334C5.06065 13.334 2.66732 10.9407 2.66732 8.00065C2.66732 5.06065 5.06065 2.66732 8.00065 2.66732C10.9407 2.66732 13.334 5.06065 13.334 8.00065C13.334 10.9407 10.9407 13.334 8.00065 13.334ZM8.00065 4.00065C6.52732 4.00065 5.33398 5.19398 5.33398 6.66732H6.66732C6.66732 5.93398 7.26732 5.33398 8.00065 5.33398C8.73398 5.33398 9.33398 5.93398 9.33398 6.66732C9.33398 8.00065 7.33398 7.83398 7.33398 10.0007H8.66732C8.66732 8.50065 10.6673 8.33398 10.6673 6.66732C10.6673 5.19398 9.47398 4.00065 8.00065 4.00065Z" fill="#BBBBBB"/>
</g>
<defs>
<clipPath id="clip0_862_25935">
<rect width="16" height="16" fill="white"/>
</clipPath>
</defs>
</svg>
