<svg width="16" height="16" viewBox="0 0 16 16" fill="none" xmlns="http://www.w3.org/2000/svg">
<g clip-path="url(#clip0_862_25970)">
<path d="M5.00102 3.73398L6.66768 4.66732L5.73435 3.00065L6.66768 1.33398L5.00102 2.26732L3.33435 1.33398L4.26768 3.00065L3.33435 4.66732L5.00102 3.73398ZM13.001 10.2673L11.3343 9.33398L12.2677 11.0007L11.3343 12.6673L13.001 11.734L14.6677 12.6673L13.7344 11.0007L14.6677 9.33398L13.001 10.2673ZM14.6677 1.33398L13.001 2.26732L11.3343 1.33398L12.2677 3.00065L11.3343 4.66732L13.001 3.73398L14.6677 4.66732L13.7344 3.00065L14.6677 1.33398ZM9.58102 4.86065C9.32102 4.60065 8.90102 4.60065 8.64102 4.86065L0.861016 12.6407C0.601016 12.9007 0.601016 13.3207 0.861016 13.5807L2.42102 15.1407C2.68102 15.4007 3.10102 15.4007 3.36102 15.1407L11.1343 7.36732C11.3943 7.10732 11.3943 6.68732 11.1343 6.42732L9.58102 4.86065ZM8.89435 8.52065L7.48102 7.10732L9.10768 5.48065L10.521 6.89398L8.89435 8.52065Z" fill="#BBBBBB"/>
</g>
<defs>
<clipPath id="clip0_862_25970">
<rect width="16" height="16" fill="white"/>
</clipPath>
</defs>
</svg>
