<svg width="16" height="16" viewBox="0 0 16 16" fill="none" xmlns="http://www.w3.org/2000/svg">
<g clip-path="url(#clip0_862_25964)">
<path d="M2.66732 4.00065H1.33398V13.334C1.33398 14.0673 1.93398 14.6673 2.66732 14.6673H12.0007V13.334H2.66732V4.00065ZM13.334 1.33398H5.33398C4.60065 1.33398 4.00065 1.93398 4.00065 2.66732V10.6673C4.00065 11.4007 4.60065 12.0007 5.33398 12.0007H13.334C14.0673 12.0007 14.6673 11.4007 14.6673 10.6673V2.66732C14.6673 1.93398 14.0673 1.33398 13.334 1.33398ZM13.334 10.6673H5.33398V2.66732H13.334V10.6673ZM6.66732 6.00065H12.0007V7.33398H6.66732V6.00065ZM6.66732 8.00065H9.33398V9.33398H6.66732V8.00065ZM6.66732 4.00065H12.0007V5.33398H6.66732V4.00065Z" fill="#BBBBBB"/>
</g>
<defs>
<clipPath id="clip0_862_25964">
<rect width="16" height="16" fill="white"/>
</clipPath>
</defs>
</svg>
