<svg width="9" height="13" viewBox="0 0 9 13" fill="none" xmlns="http://www.w3.org/2000/svg">
<path d="M7.22 7.56C6.94 7.84 6.70667 8.16667 6.52 8.54C6.36444 8.91333 6.28667 9.30222 6.28667 9.70667V11.1067C6.28667 11.3244 6.22444 11.5422 6.1 11.76C5.97556 11.9467 5.80444 12.0867 5.58667 12.18C5.46222 12.2422 5.32222 12.2578 5.16667 12.2267H3.76667C3.42444 12.2578 3.14444 12.1644 2.92667 11.9467C2.70889 11.6978 2.6 11.4178 2.6 11.1067V9.70667C2.6 9.30222 2.52222 8.91333 2.36667 8.54C2.21111 8.16667 1.99333 7.84 1.71333 7.56C1.34 7.21778 1.04444 6.81333 0.826667 6.34667C0.608889 5.84889 0.5 5.33556 0.5 4.80667C0.5 4.09111 0.686667 3.43778 1.06 2.84667C1.21556 2.53556 1.40222 2.27111 1.62 2.05333C1.86889 1.80444 2.13333 1.60222 2.41333 1.44667C2.72444 1.26 3.05111 1.12 3.39333 1.02667C3.73556 0.933333 4.09333 0.886667 4.46667 0.886667C5.18222 0.886667 5.83556 1.05778 6.42667 1.4C7.04889 1.74222 7.53111 2.22444 7.87333 2.84667C8.21556 3.43778 8.38667 4.09111 8.38667 4.80667C8.38667 5.36667 8.27778 5.88 8.06 6.34667C7.87333 6.81333 7.59333 7.21778 7.22 7.56ZM5.4 9.19333H3.48667V11.1067C3.48667 11.1689 3.50222 11.2311 3.53333 11.2933C3.59556 11.3556 3.67333 11.3867 3.76667 11.3867H5.16667C5.22889 11.3867 5.27556 11.3711 5.30667 11.34C5.36889 11.2778 5.4 11.2 5.4 11.1067V9.19333Z" fill="#BBBBBB"/>
</svg>
