<svg width="16" height="16" viewBox="0 0 16 16" fill="none" xmlns="http://www.w3.org/2000/svg">
    <g clip-path="url(#clip0_1057_60993)">
        <path d="M13.3337 13.0607V5.33398L9.33366 1.33398H2.66699V14.6673L13.047 14.654L9.84033 11.4473C9.30699 11.794 8.68033 12.0007 8.00033 12.0007C6.16033 12.0007 4.66699 10.5073 4.66699 8.66732C4.66699 6.82732 6.16033 5.33398 8.00033 5.33398C9.84033 5.33398 11.3337 6.82732 11.3337 8.66732C11.3337 9.34732 11.127 9.97398 10.7803 10.5007L13.3337 13.0607ZM6.00033 8.66732C6.00033 9.77398 6.89366 10.6673 8.00033 10.6673C9.10699 10.6673 10.0003 9.77398 10.0003 8.66732C10.0003 7.56065 9.10699 6.66732 8.00033 6.66732C6.89366 6.66732 6.00033 7.56065 6.00033 8.66732Z" fill="#BBBBBB"/>
    </g>
    <defs>
        <clipPath id="clip0_1057_60993">
            <rect width="16" height="16" fill="white"/>
        </clipPath>
    </defs>
</svg>
