<svg width="48" height="48" viewBox="0 0 48 48" fill="none" xmlns="http://www.w3.org/2000/svg">
<g id="icon">
<path id="Subtract" opacity="0.5" d="M26 32.082V36.3273C26 37.3986 26.8564 38.2688 27.9149 38.2688H33.465C34.0402 38.5919 34.8812 39.3121 35.6988 40.0122C36.5123 40.7088 37.3025 41.3855 37.7842 41.6311C38.0011 41.742 38.2588 41.5841 38.2625 41.3379C38.2653 41.1566 38.2689 40.7797 38.2731 40.3404C38.28 39.6227 38.2885 38.7386 38.2977 38.2688H44.0851C45.1417 38.2688 46 37.4005 46 36.3273V26.9415C46 25.8702 45.1417 25 44.0851 25H38.3008V27.082C38.3008 29.8435 36.0622 32.082 33.3008 32.082H26Z" fill="#808080"/>
<path id="Subtract_2" fill-rule="evenodd" clip-rule="evenodd" d="M33.0334 7.41406H5.86745C4.09231 7.41406 2.65039 8.87591 2.65039 10.6756V26.4434C2.65039 28.2462 4.09231 29.7049 5.86745 29.7049H10.5903C10.6057 30.494 10.62 31.9789 10.6315 33.1843L10.6315 33.1849L10.6315 33.1851L10.6315 33.1852C10.6386 33.9232 10.6447 34.5564 10.6494 34.8609C10.6557 35.2745 11.0885 35.5397 11.4529 35.3534C12.2622 34.9408 13.5897 33.8041 14.9564 32.6338L14.9564 32.6338C16.3299 31.4577 17.743 30.2478 18.7092 29.7049H33.0334C34.8116 29.7049 36.2504 28.2431 36.2504 26.4434V10.6756C36.2504 8.87276 34.8085 7.41406 33.0334 7.41406ZM15.25 15.5C15.25 13.1528 17.1528 11.25 19.5 11.25C21.8472 11.25 23.75 13.1528 23.75 15.5V17H22.25V15.5C22.25 13.9812 21.0188 12.75 19.5 12.75C17.9812 12.75 16.75 13.9812 16.75 15.5V17H15.25V15.5ZM14 19C14 18.4477 14.4477 18 15 18H24C24.5523 18 25 18.4477 25 19V24C25 24.5523 24.5523 25 24 25H15C14.4477 25 14 24.5523 14 24V19Z" fill="#808080"/>
</g>
</svg>
