<svg width="18" height="18" viewBox="0 0 18 18" fill="none" xmlns="http://www.w3.org/2000/svg">
<rect width="18" height="18" rx="9" transform="matrix(-1 0 0 1 18 0)" fill="#CCCCCC"/>
<path d="M8.85041 7.64936C7.44325 7.64936 6.30251 6.38471 6.30251 4.82468C6.30251 3.26465 7.44325 2 8.85041 2C10.2576 2 11.3983 3.26465 11.3983 4.82468C11.3983 6.38471 10.2576 7.64936 8.85041 7.64936Z" fill="white"/>
<path d="M6.23943 8.4297H11.3159C11.5698 8.42885 11.8212 8.47714 12.055 8.57176C12.2888 8.66638 12.5 8.80536 12.676 8.98019C12.8519 9.15502 12.9889 9.36216 13.0787 9.58901C13.1685 9.81586 13.2091 10.0576 13.1982 10.2999C13.0516 13.1215 11.7043 14.9888 9.31917 16.0309C9.14993 16.1047 8.96634 16.1437 8.78032 16.1453C8.5943 16.1469 8.40999 16.111 8.2394 16.0401C5.80753 15.0334 4.56502 13.08 4.40225 10.2707C4.38978 10.0331 4.42809 9.79553 4.51484 9.57247C4.60159 9.34942 4.73495 9.14552 4.90683 8.97328C5.07871 8.80104 5.28552 8.66401 5.51462 8.57055C5.74371 8.4771 5.99031 8.42919 6.23943 8.4297Z" fill="white"/>
</svg>
